<mxfile host="Electron" modified="2023-11-03T03:37:36.614Z" agent="Mozilla/5.0 (Windows NT 10.0; Win64; x64) AppleWebKit/537.36 (KHTML, like Gecko) draw.io/22.0.3 Chrome/114.0.5735.289 Electron/25.8.4 Safari/537.36" etag="1_wzaFn5OAakMrpNdIf7" version="22.0.3" type="device">
  <diagram name="Page-1" id="CzNnvDk6raqUo6cC2L47">
    <mxGraphModel dx="1434" dy="884" grid="1" gridSize="10" guides="1" tooltips="1" connect="1" arrows="1" fold="1" page="1" pageScale="1" pageWidth="850" pageHeight="1100" math="0" shadow="0">
      <root>
        <mxCell id="0" />
        <mxCell id="1" parent="0" />
        <mxCell id="9PJJFf-RqLfJpwe3m-zI-1" value="Quiz Game" style="strokeWidth=1;shadow=0;dashed=0;align=center;html=1;shape=mxgraph.mockup.containers.window;align=left;verticalAlign=top;spacingLeft=8;strokeColor2=#008cff;strokeColor3=#c4c4c4;fontColor=#666666;mainText=;fontSize=17;labelBackgroundColor=none;whiteSpace=wrap;" parent="1" vertex="1">
          <mxGeometry x="30" y="80" width="784" height="988" as="geometry" />
        </mxCell>
        <mxCell id="W9H95hfI3UYK3thSFxWU-20" value="" style="edgeStyle=orthogonalEdgeStyle;rounded=0;orthogonalLoop=1;jettySize=auto;html=1;" parent="1" source="W9H95hfI3UYK3thSFxWU-1" target="W9H95hfI3UYK3thSFxWU-19" edge="1">
          <mxGeometry relative="1" as="geometry" />
        </mxCell>
        <mxCell id="W9H95hfI3UYK3thSFxWU-1" value="" style="strokeWidth=1;shadow=0;dashed=0;align=center;html=1;shape=mxgraph.mockup.forms.rrect;rSize=0;strokeColor=default;fillColor=#ffffff;" parent="1" vertex="1">
          <mxGeometry x="46" y="400" width="180" height="250" as="geometry" />
        </mxCell>
        <mxCell id="W9H95hfI3UYK3thSFxWU-2" value="&lt;div style=&quot;&quot;&gt;&lt;span style=&quot;font-size: 16px;&quot;&gt;lorem ipsun&lt;/span&gt;&lt;/div&gt;" style="strokeWidth=1;shadow=0;dashed=0;align=center;html=1;shape=mxgraph.mockup.forms.anchor;fontSize=12;fontColor=#666666;align=left;resizeWidth=1;spacingLeft=0;" parent="W9H95hfI3UYK3thSFxWU-1" vertex="1">
          <mxGeometry width="135" height="70" relative="1" as="geometry">
            <mxPoint x="33" y="20" as="offset" />
          </mxGeometry>
        </mxCell>
        <mxCell id="W9H95hfI3UYK3thSFxWU-4" value="" style="strokeWidth=1;shadow=0;dashed=0;align=center;html=1;shape=mxgraph.mockup.forms.anchor;fontSize=12;fontColor=#666666;align=left;resizeWidth=1;spacingLeft=0;" parent="W9H95hfI3UYK3thSFxWU-1" vertex="1">
          <mxGeometry width="90" height="20" relative="1" as="geometry">
            <mxPoint x="10" y="40" as="offset" />
          </mxGeometry>
        </mxCell>
        <mxCell id="W9H95hfI3UYK3thSFxWU-5" value="Enter your name" style="strokeWidth=1;shadow=0;dashed=0;align=center;html=1;shape=mxgraph.mockup.forms.rrect;rSize=0;strokeColor=none;fontColor=#666666;align=left;spacingLeft=5;resizeWidth=1;" parent="W9H95hfI3UYK3thSFxWU-1" vertex="1">
          <mxGeometry width="135" height="25" relative="1" as="geometry">
            <mxPoint x="40" y="95" as="offset" />
          </mxGeometry>
        </mxCell>
        <mxCell id="W9H95hfI3UYK3thSFxWU-6" value="" style="strokeWidth=1;shadow=0;dashed=0;align=center;html=1;shape=mxgraph.mockup.forms.anchor;fontSize=12;fontColor=#666666;align=left;resizeWidth=1;spacingLeft=0;" parent="W9H95hfI3UYK3thSFxWU-1" vertex="1">
          <mxGeometry width="90" height="20" relative="1" as="geometry">
            <mxPoint x="10" y="95" as="offset" />
          </mxGeometry>
        </mxCell>
        <mxCell id="W9H95hfI3UYK3thSFxWU-7" value="Enter your email" style="strokeWidth=1;shadow=0;dashed=0;align=center;html=1;shape=mxgraph.mockup.forms.rrect;rSize=0;strokeColor=none;fontColor=#666666;align=left;spacingLeft=5;resizeWidth=1;" parent="W9H95hfI3UYK3thSFxWU-1" vertex="1">
          <mxGeometry width="135" height="25" relative="1" as="geometry">
            <mxPoint x="36" y="142" as="offset" />
          </mxGeometry>
        </mxCell>
        <mxCell id="W9H95hfI3UYK3thSFxWU-8" value="Start Quiz" style="strokeWidth=1;shadow=0;dashed=0;align=center;html=1;shape=mxgraph.mockup.forms.rrect;rSize=5;fontSize=16;fontStyle=1;strokeColor=#000000;" parent="W9H95hfI3UYK3thSFxWU-1" vertex="1">
          <mxGeometry y="1" width="140" height="30" relative="1" as="geometry">
            <mxPoint x="19" y="-53" as="offset" />
          </mxGeometry>
        </mxCell>
        <mxCell id="W9H95hfI3UYK3thSFxWU-9" value="" style="strokeWidth=1;shadow=0;dashed=0;align=center;html=1;shape=mxgraph.mockup.forms.anchor;fontSize=12;fontColor=#9999ff;align=left;spacingLeft=0;fontStyle=4;resizeWidth=1;" parent="W9H95hfI3UYK3thSFxWU-1" vertex="1">
          <mxGeometry y="1" width="135" height="20" relative="1" as="geometry">
            <mxPoint x="10" y="-110" as="offset" />
          </mxGeometry>
        </mxCell>
        <mxCell id="W9H95hfI3UYK3thSFxWU-16" value="" style="endArrow=none;html=1;rounded=0;exitX=0.765;exitY=0.385;exitDx=0;exitDy=0;exitPerimeter=0;" parent="W9H95hfI3UYK3thSFxWU-1" edge="1">
          <mxGeometry width="50" height="50" relative="1" as="geometry">
            <mxPoint x="152.784" y="118.64999999999989" as="sourcePoint" />
            <mxPoint x="18" y="118.33333333333334" as="targetPoint" />
          </mxGeometry>
        </mxCell>
        <mxCell id="W9H95hfI3UYK3thSFxWU-18" value="" style="endArrow=none;html=1;rounded=0;exitX=0.765;exitY=0.385;exitDx=0;exitDy=0;exitPerimeter=0;" parent="1" edge="1">
          <mxGeometry width="50" height="50" relative="1" as="geometry">
            <mxPoint x="211.76" y="568.3799999999999" as="sourcePoint" />
            <mxPoint x="62" y="568" as="targetPoint" />
          </mxGeometry>
        </mxCell>
        <mxCell id="W9H95hfI3UYK3thSFxWU-22" value="" style="edgeStyle=orthogonalEdgeStyle;rounded=0;orthogonalLoop=1;jettySize=auto;html=1;" parent="1" source="W9H95hfI3UYK3thSFxWU-19" target="W9H95hfI3UYK3thSFxWU-21" edge="1">
          <mxGeometry relative="1" as="geometry" />
        </mxCell>
        <mxCell id="W9H95hfI3UYK3thSFxWU-19" value="" style="whiteSpace=wrap;html=1;fillColor=#ffffff;strokeWidth=1;shadow=0;dashed=0;" parent="1" vertex="1">
          <mxGeometry x="250" y="380" width="230" height="290" as="geometry" />
        </mxCell>
        <mxCell id="W9H95hfI3UYK3thSFxWU-21" value="" style="whiteSpace=wrap;html=1;fillColor=#ffffff;strokeWidth=1;shadow=0;dashed=0;" parent="1" vertex="1">
          <mxGeometry x="520" y="290" width="270" height="470" as="geometry" />
        </mxCell>
        <mxCell id="W9H95hfI3UYK3thSFxWU-23" value="" style="strokeWidth=1;shadow=0;dashed=0;align=center;html=1;shape=mxgraph.mockup.forms.rrect;rSize=0;strokeColor=#999999;fillColor=#ffffff;recursiveResize=0;" parent="1" vertex="1">
          <mxGeometry x="297" y="470" width="150" height="120" as="geometry" />
        </mxCell>
        <mxCell id="W9H95hfI3UYK3thSFxWU-24" value="option 1" style="shape=ellipse;rSize=0;fillColor=#eeeeee;strokeColor=#999999;gradientColor=#cccccc;html=1;align=left;spacingLeft=4;fontSize=17;fontColor=#666666;labelPosition=right;" parent="W9H95hfI3UYK3thSFxWU-23" vertex="1">
          <mxGeometry x="8" y="7.5" width="15" height="15" as="geometry" />
        </mxCell>
        <mxCell id="W9H95hfI3UYK3thSFxWU-25" value="option 2" style="shape=ellipse;rSize=0;fillColor=#eeeeee;strokeColor=#999999;gradientColor=#cccccc;html=1;align=left;spacingLeft=4;fontSize=17;fontColor=#666666;labelPosition=right;" parent="W9H95hfI3UYK3thSFxWU-23" vertex="1">
          <mxGeometry x="8" y="37.5" width="15" height="15" as="geometry" />
        </mxCell>
        <mxCell id="W9H95hfI3UYK3thSFxWU-26" value="option 3" style="shape=ellipse;rSize=0;fillColor=#aaaaaa;strokeColor=#444444;gradientColor=#666666;html=1;align=left;spacingLeft=4;fontSize=17;fontColor=#008cff;labelPosition=right;" parent="W9H95hfI3UYK3thSFxWU-23" vertex="1">
          <mxGeometry x="8" y="67.5" width="15" height="15" as="geometry" />
        </mxCell>
        <mxCell id="W9H95hfI3UYK3thSFxWU-27" value="" style="shape=ellipse;fillColor=#444444;strokeColor=none;html=1;" parent="W9H95hfI3UYK3thSFxWU-26" vertex="1">
          <mxGeometry x="3" y="3" width="9" height="9" as="geometry" />
        </mxCell>
        <mxCell id="W9H95hfI3UYK3thSFxWU-28" value="option 4" style="shape=ellipse;rSize=0;fillColor=#eeeeee;strokeColor=#999999;gradientColor=#cccccc;html=1;align=left;spacingLeft=4;fontSize=17;fontColor=#666666;labelPosition=right;" parent="W9H95hfI3UYK3thSFxWU-23" vertex="1">
          <mxGeometry x="8" y="97.5" width="15" height="15" as="geometry" />
        </mxCell>
        <mxCell id="W9H95hfI3UYK3thSFxWU-33" value="&lt;span style=&quot;font-weight: normal;&quot;&gt;Next Question&lt;/span&gt;" style="strokeWidth=1;shadow=0;dashed=0;align=center;html=1;shape=mxgraph.mockup.forms.rrect;rSize=5;fontSize=16;fontStyle=1;strokeColor=#000000;" parent="1" vertex="1">
          <mxGeometry x="295" y="620" width="140" height="30" as="geometry" />
        </mxCell>
        <mxCell id="W9H95hfI3UYK3thSFxWU-34" value="Questions here" style="text;strokeColor=none;align=center;fillColor=none;html=1;verticalAlign=middle;whiteSpace=wrap;rounded=0;fontSize=18;" parent="1" vertex="1">
          <mxGeometry x="289" y="409" width="160" height="30" as="geometry" />
        </mxCell>
        <mxCell id="W9H95hfI3UYK3thSFxWU-35" value="" style="shape=table;html=1;whiteSpace=wrap;startSize=0;container=1;collapsible=0;childLayout=tableLayout;strokeWidth=1;" parent="1" vertex="1">
          <mxGeometry x="565" y="580" width="180" height="77" as="geometry" />
        </mxCell>
        <mxCell id="W9H95hfI3UYK3thSFxWU-36" value="" style="shape=tableRow;horizontal=0;startSize=0;swimlaneHead=0;swimlaneBody=0;top=0;left=0;bottom=0;right=0;collapsible=0;dropTarget=0;fillColor=none;points=[[0,0.5],[1,0.5]];portConstraint=eastwest;" parent="W9H95hfI3UYK3thSFxWU-35" vertex="1">
          <mxGeometry width="180" height="27" as="geometry" />
        </mxCell>
        <mxCell id="W9H95hfI3UYK3thSFxWU-37" value="player" style="shape=partialRectangle;html=1;whiteSpace=wrap;connectable=0;fillColor=none;top=0;left=0;bottom=0;right=0;overflow=hidden;fontStyle=1" parent="W9H95hfI3UYK3thSFxWU-36" vertex="1">
          <mxGeometry width="90" height="27" as="geometry">
            <mxRectangle width="90" height="27" as="alternateBounds" />
          </mxGeometry>
        </mxCell>
        <mxCell id="W9H95hfI3UYK3thSFxWU-38" value="score" style="shape=partialRectangle;html=1;whiteSpace=wrap;connectable=0;fillColor=none;top=0;left=0;bottom=0;right=0;overflow=hidden;fontStyle=1" parent="W9H95hfI3UYK3thSFxWU-36" vertex="1">
          <mxGeometry x="90" width="90" height="27" as="geometry">
            <mxRectangle width="90" height="27" as="alternateBounds" />
          </mxGeometry>
        </mxCell>
        <mxCell id="W9H95hfI3UYK3thSFxWU-39" value="" style="shape=tableRow;horizontal=0;startSize=0;swimlaneHead=0;swimlaneBody=0;top=0;left=0;bottom=0;right=0;collapsible=0;dropTarget=0;fillColor=none;points=[[0,0.5],[1,0.5]];portConstraint=eastwest;" parent="W9H95hfI3UYK3thSFxWU-35" vertex="1">
          <mxGeometry y="27" width="180" height="23" as="geometry" />
        </mxCell>
        <mxCell id="W9H95hfI3UYK3thSFxWU-40" value="player 1" style="shape=partialRectangle;html=1;whiteSpace=wrap;connectable=0;fillColor=none;top=0;left=0;bottom=0;right=0;overflow=hidden;" parent="W9H95hfI3UYK3thSFxWU-39" vertex="1">
          <mxGeometry width="90" height="23" as="geometry">
            <mxRectangle width="90" height="23" as="alternateBounds" />
          </mxGeometry>
        </mxCell>
        <mxCell id="W9H95hfI3UYK3thSFxWU-41" value="score 1" style="shape=partialRectangle;html=1;whiteSpace=wrap;connectable=0;fillColor=none;top=0;left=0;bottom=0;right=0;overflow=hidden;" parent="W9H95hfI3UYK3thSFxWU-39" vertex="1">
          <mxGeometry x="90" width="90" height="23" as="geometry">
            <mxRectangle width="90" height="23" as="alternateBounds" />
          </mxGeometry>
        </mxCell>
        <mxCell id="W9H95hfI3UYK3thSFxWU-42" value="" style="shape=tableRow;horizontal=0;startSize=0;swimlaneHead=0;swimlaneBody=0;top=0;left=0;bottom=0;right=0;collapsible=0;dropTarget=0;fillColor=none;points=[[0,0.5],[1,0.5]];portConstraint=eastwest;" parent="W9H95hfI3UYK3thSFxWU-35" vertex="1">
          <mxGeometry y="50" width="180" height="27" as="geometry" />
        </mxCell>
        <mxCell id="W9H95hfI3UYK3thSFxWU-43" value="player 2" style="shape=partialRectangle;html=1;whiteSpace=wrap;connectable=0;fillColor=none;top=0;left=0;bottom=0;right=0;overflow=hidden;" parent="W9H95hfI3UYK3thSFxWU-42" vertex="1">
          <mxGeometry width="90" height="27" as="geometry">
            <mxRectangle width="90" height="27" as="alternateBounds" />
          </mxGeometry>
        </mxCell>
        <mxCell id="W9H95hfI3UYK3thSFxWU-44" value="score 2" style="shape=partialRectangle;html=1;whiteSpace=wrap;connectable=0;fillColor=none;top=0;left=0;bottom=0;right=0;overflow=hidden;" parent="W9H95hfI3UYK3thSFxWU-42" vertex="1">
          <mxGeometry x="90" width="90" height="27" as="geometry">
            <mxRectangle width="90" height="27" as="alternateBounds" />
          </mxGeometry>
        </mxCell>
        <mxCell id="W9H95hfI3UYK3thSFxWU-45" value="Leader Board" style="strokeWidth=1;shadow=0;dashed=0;align=center;html=1;shape=mxgraph.mockup.text.textBox;fontColor=#666666;align=left;fontSize=17;spacingLeft=4;spacingTop=-3;whiteSpace=wrap;strokeColor=#666666;mainText=" parent="1" vertex="1">
          <mxGeometry x="565" y="550" width="180" height="30" as="geometry" />
        </mxCell>
        <mxCell id="W9H95hfI3UYK3thSFxWU-46" value="&lt;span style=&quot;font-weight: normal;&quot;&gt;play again&lt;/span&gt;" style="strokeWidth=1;shadow=0;dashed=0;align=center;html=1;shape=mxgraph.mockup.forms.rrect;rSize=5;fontSize=16;fontStyle=1;strokeColor=#000000;" parent="1" vertex="1">
          <mxGeometry x="585" y="700" width="140" height="30" as="geometry" />
        </mxCell>
        <mxCell id="W9H95hfI3UYK3thSFxWU-47" value="" style="verticalLabelPosition=bottom;shadow=0;dashed=0;align=center;html=1;verticalAlign=top;strokeWidth=1;shape=mxgraph.mockup.graphics.simpleIcon;strokeColor=#999999;" parent="1" vertex="1">
          <mxGeometry x="595" y="340" width="120" height="130" as="geometry" />
        </mxCell>
        <mxCell id="W9H95hfI3UYK3thSFxWU-48" value="lorem iosun" style="strokeWidth=1;shadow=0;dashed=0;align=center;html=1;shape=mxgraph.mockup.text.bulletedList;textColor=#666666;mainText=,,,,;textSize=17;bulletStyle=none;strokeColor=none;fillColor=none;align=left;verticalAlign=top;fontSize=17;fontColor=#666666;" parent="1" vertex="1">
          <mxGeometry x="605" y="500" width="110" height="50" as="geometry" />
        </mxCell>
        <mxCell id="W9H95hfI3UYK3thSFxWU-50" value="start" style="strokeWidth=1;shadow=0;dashed=0;align=center;html=1;shape=mxgraph.mockup.text.textBox;fontColor=#666666;align=left;fontSize=17;spacingLeft=4;spacingTop=-3;whiteSpace=wrap;strokeColor=#666666;mainText=" parent="1" vertex="1">
          <mxGeometry x="46" y="370" width="54" height="30" as="geometry" />
        </mxCell>
        <mxCell id="W9H95hfI3UYK3thSFxWU-51" value="quiz" style="strokeWidth=1;shadow=0;dashed=0;align=center;html=1;shape=mxgraph.mockup.text.textBox;fontColor=#666666;align=left;fontSize=17;spacingLeft=4;spacingTop=-3;whiteSpace=wrap;strokeColor=#666666;mainText=" parent="1" vertex="1">
          <mxGeometry x="250" y="350" width="54" height="30" as="geometry" />
        </mxCell>
        <mxCell id="W9H95hfI3UYK3thSFxWU-52" value="end" style="strokeWidth=1;shadow=0;dashed=0;align=center;html=1;shape=mxgraph.mockup.text.textBox;fontColor=#666666;align=left;fontSize=17;spacingLeft=4;spacingTop=-3;whiteSpace=wrap;strokeColor=#666666;mainText=" parent="1" vertex="1">
          <mxGeometry x="520" y="260" width="50" height="30" as="geometry" />
        </mxCell>
      </root>
    </mxGraphModel>
  </diagram>
</mxfile>
